<?xml version="1.0" standalone="no"?>
<!DOCTYPE svg PUBLIC "-//W3C//DTD SVG 20010904//EN"
 "http://www.w3.org/TR/2001/REC-SVG-20010904/DTD/svg10.dtd">
<svg version="1.0" xmlns="http://www.w3.org/2000/svg"
 width="1920.000000pt" height="1260.000000pt" viewBox="0 0 1920.000000 1260.000000"
 preserveAspectRatio="xMidYMid meet">

<g transform="translate(0.000000,1260.000000) scale(0.100000,-0.100000)"
fill="#000000" stroke="none">
<path d="M10 8539 l0 -4053 30 29 c16 15 32 41 35 56 l7 29 3272 0 c2341 0
3296 -3 3356 -11 56 -7 357 -11 880 -12 675 0 814 2 920 16 93 12 222 17 505
18 334 1 434 -2 827 -30 246 -17 470 -31 498 -31 32 0 73 10 113 26 34 14 63
27 64 28 1 1 -5 33 -13 71 -25 119 -52 319 -79 590 -14 143 -36 348 -50 455
-21 170 -23 207 -14 290 6 52 12 156 14 230 l4 135 42 18 c124 52 300 77 559
77 261 1 478 15 675 45 254 38 532 48 992 36 214 -6 800 -13 1303 -16 700 -5
938 -10 1015 -20 55 -8 228 -24 385 -35 157 -11 337 -27 401 -35 135 -17 306
-59 331 -82 39 -35 50 -100 58 -333 5 -124 9 -226 9 -227 1 -2 16 -3 34 -3 54
0 139 26 257 79 221 100 316 114 500 71 307 -72 518 -236 617 -480 43 -107 56
-207 50 -380 -5 -165 -23 -254 -58 -303 l-20 -27 48 -21 c206 -89 445 -129
767 -129 143 0 826 28 833 34 1 1 -3 45 -9 97 -8 58 -12 248 -12 499 1 447 1
1396 1 1840 0 165 5 318 11 363 9 58 12 741 12 2608 l0 2529 -6557 0 c-5983
-1 -6569 -3 -6688 -17 -181 -23 -753 -21 -1130 3 -252 16 -505 18 -2537 21
l-2258 4 0 -4052z"/>
<path d="M16605 5627 c-146 -83 -192 -116 -244 -172 -67 -72 -86 -123 -87
-233 l-1 -93 -50 -34 c-71 -48 -131 -119 -168 -200 -36 -78 -69 -207 -60 -236
7 -22 13 -24 155 -46 86 -13 173 -17 345 -17 200 1 240 4 310 22 l80 21 42
-41 42 -41 49 37 c215 157 348 445 314 677 -36 249 -224 398 -522 414 l-95 5
-110 -63z"/>
</g>
</svg>
